<svg xmlns="http://www.w3.org/2000/svg" xmlns:xlink="http://www.w3.org/1999/xlink"><symbol id="ok-logo" viewBox="0 0 30 30"><path d="M15.171 12.643c1.157 0 2.057-.965 2.036-2.014.021-1.05-.857-2.036-2.014-2.036-1.115 0-2.036.9-2.036 2.014 0 1.114.9 2.036 2.014 2.036z"/><path d="M15 0C6.729 0 0 6.729 0 15c0 8.293 6.729 15 15 15 8.293 0 15-6.729 15-15 .021-8.271-6.707-15-15-15zm.214 5.679c2.7 0 4.929 2.228 4.907 4.95 0 2.742-2.25 4.95-4.992 4.907-2.7-.043-4.865-2.25-4.865-4.929a4.934 4.934 0 014.95-4.928zm5.507 11.571c0 .043-.021.064-.021.107a1.401 1.401 0 01-.643 1.007c-.236.15-.493.3-.75.429a9.662 9.662 0 01-2.036.75c-.085.021-.085.021-.021.086l1.178 1.178 1.5 1.5a1.43 1.43 0 01-.385 2.314c-.15.086-.322.108-.493.15h-.279c-.021 0-.043 0-.043-.021-.342-.043-.62-.214-.878-.45l-2.593-2.593c-.064-.064-.064-.064-.128 0l-2.615 2.614c-.15.15-.3.258-.493.343-.128.065-.278.086-.407.107h-.278c-.043 0-.065-.021-.107-.021-.579-.107-.965-.429-1.136-.986-.172-.557-.043-1.05.364-1.457l1.072-1.071 1.585-1.586c.064-.064.064-.064-.021-.086-.022 0-.065-.021-.086-.021a9.26 9.26 0 01-2.678-1.136c-.493-.321-.729-.793-.665-1.371a1.44 1.44 0 012.207-1.072c.172.107.322.193.515.279a6.1 6.1 0 003.128.643 6.069 6.069 0 001.607-.3c.515-.172.965-.407 1.436-.665a1.445 1.445 0 012.079.75c.043.129.064.236.085.365v.214z"/></symbol><symbol id="pinterest-logo" viewBox="0 0 30 30"><path d="M15 0c8.285 0 15 6.716 15 15 0 8.285-6.715 15-15 15S0 23.285 0 15C0 6.716 6.715 0 15 0z"/><path fill="currentColor" d="M15 5C9.482 5 5 9.482 5 15s4.482 10 10 10 10-4.482 10-10S20.518 5 15 5zm0 .87A9.124 9.124 0 0124.13 15 9.124 9.124 0 0115 24.13a9.148 9.148 0 01-2.654-.392c.374-.625.857-1.519 1.049-2.257l.583-2.222c.304.581 1.194 1.073 2.141 1.073 2.82 0 4.852-2.593 4.852-5.814 0-3.09-2.52-5.4-5.764-5.4-4.035 0-6.176 2.708-6.176 5.657 0 1.371.73 3.078 1.897 3.622.177.082.272.046.313-.125.03-.13.189-.765.26-1.06a.28.28 0 00-.065-.268c-.386-.469-.696-1.33-.696-2.133 0-2.062 1.56-4.058 4.22-4.058 2.296 0 3.905 1.566 3.905 3.804 0 2.528-1.277 4.28-2.938 4.28-.918 0-1.605-.759-1.385-1.69.264-1.11.775-2.31.775-3.112 0-.717-.385-1.316-1.183-1.316-.938 0-1.692.97-1.692 2.27 0 .827.28 1.387.28 1.387s-.926 3.918-1.096 4.647c-.17.729-.124 1.71-.054 2.44A9.124 9.124 0 015.87 15 9.124 9.124 0 0115 5.87z"/></symbol><symbol id="smart-logo" viewBox="0 0 55 55"><path d="M33.917 14.666c1.193 0 2.201.77 2.581 1.834h9.504a2.746 2.746 0 012.581-1.834 2.753 2.753 0 012.75 2.75 2.753 2.753 0 01-2.75 2.75 2.746 2.746 0 01-2.581-1.833h-9.505a2.746 2.746 0 01-2.581 1.833 2.753 2.753 0 01-2.75-2.75 2.754 2.754 0 012.75-2.75zm14.666 3.667a.918.918 0 000-1.833.918.918 0 000 1.833zm-14.666 0a.918.918 0 000-1.833.918.918 0 000 1.833z"/><path d="M26.583 20.335v-5.669c0-.243.097-.476.269-.648l3.667-3.666a.914.914 0 01.648-.269h2.918a2.746 2.746 0 012.582-1.833 2.753 2.753 0 012.75 2.75 2.753 2.753 0 01-2.75 2.75 2.746 2.746 0 01-2.582-1.834h-2.539l-3.13 3.13v5.289a2.746 2.746 0 011.834 2.581 2.753 2.753 0 01-2.75 2.75 2.753 2.753 0 01-2.75-2.75c0-1.193.77-2.201 1.833-2.581zm10.084-8.419a.918.918 0 000-1.833.918.918 0 000 1.833zM27.5 23.834a.918.918 0 000-1.833.918.918 0 000 1.833zm-17.417-.001c.424 0 .82.104 1.178.276l1.572-1.572V13.75c0-.244.097-.477.269-.648l9.174-9.174A2.705 2.705 0 0122 2.75 2.753 2.753 0 0124.75 0a2.753 2.753 0 012.75 2.75 2.753 2.753 0 01-2.75 2.75c-.424 0-.82-.104-1.178-.276l-8.905 8.905v8.787a.913.913 0 01-.269.648l-1.84 1.841c.172.358.275.754.275 1.178a2.753 2.753 0 01-2.75 2.75 2.753 2.753 0 01-2.75-2.75 2.753 2.753 0 012.75-2.75zM24.75 3.667a.918.918 0 000-1.834.918.918 0 000 1.834zM10.083 27.5a.918.918 0 000-1.834.918.918 0 000 1.834zm-8.25-14.498V9.167c0-.244.097-.477.269-.649l6.417-6.416a.914.914 0 01.648-.269h4.752A2.746 2.746 0 0116.5 0a2.753 2.753 0 012.75 2.75A2.753 2.753 0 0116.5 5.5a2.746 2.746 0 01-2.581-1.833H9.546l-5.88 5.879v3.456A2.746 2.746 0 015.5 15.583a2.753 2.753 0 01-2.75 2.75A2.753 2.753 0 010 15.583c0-1.193.77-2.202 1.833-2.581zM16.5 3.667a.918.918 0 000-1.834.918.918 0 000 1.834zM2.75 16.5a.918.918 0 000-1.834.918.918 0 000 1.834zm11.916 33.169V36.497a2.747 2.747 0 01-1.833-2.58 2.753 2.753 0 012.75-2.75c1.194 0 2.202.768 2.582 1.832h9.504a2.746 2.746 0 012.581-1.833c1.194 0 2.202.77 2.581 1.833h5.29l3.405-3.405a2.705 2.705 0 01-.276-1.178 2.753 2.753 0 012.75-2.75 2.753 2.753 0 012.75 2.75 2.753 2.753 0 01-2.75 2.75c-.423 0-.82-.103-1.178-.276l-3.674 3.674a.914.914 0 01-.648.269h-5.669a2.746 2.746 0 01-2.581 1.833 2.746 2.746 0 01-2.581-1.833h-9.505a2.747 2.747 0 01-1.665 1.664V49.67a2.746 2.746 0 011.834 2.581 2.753 2.753 0 01-2.75 2.75 2.753 2.753 0 01-2.75-2.75c0-1.193.768-2.202 1.833-2.581zM44 29.333a.918.918 0 000-1.833.917.917 0 000 1.833zm-13.75 5.5a.918.918 0 000-1.834.917.917 0 000 1.834zM15.583 53.166a.918.918 0 000-1.833.918.918 0 000 1.833zm0-18.333a.918.918 0 000-1.834.918.918 0 000 1.834z"/><path d="M19.25 18.502v-2.919a.91.91 0 01.269-.648L30.526 3.928a2.705 2.705 0 01-.276-1.178A2.753 2.753 0 0133 0c1.194 0 2.202.77 2.581 1.833h3.836c.506 0 .916.41.916.917v2.37l3.406 3.406a2.705 2.705 0 011.178-.276 2.753 2.753 0 012.75 2.75 2.753 2.753 0 01-2.75 2.75 2.753 2.753 0 01-2.75-2.75c0-.424.103-.82.276-1.178l-3.674-3.674A.913.913 0 0138.5 5.5V3.667h-2.919A2.746 2.746 0 0133 5.5a2.71 2.71 0 01-1.178-.276L21.083 15.963v2.539a2.746 2.746 0 011.834 2.581 2.753 2.753 0 01-2.75 2.75 2.753 2.753 0 01-2.75-2.75c0-1.193.769-2.202 1.833-2.581zm25.667-6.585a.918.918 0 000-1.834.918.918 0 000 1.833zM33 3.666a.918.918 0 000-1.834.918.918 0 000 1.834zM20.167 22a.917.917 0 10-.002-1.835.917.917 0 00.002 1.835z"/><path d="M22 25.666c1.194 0 2.202.77 2.581 1.834h10.79l5.23-5.232A.914.914 0 0141.25 22h9.704l2.213-2.213v-7.491l-7.072-7.072a2.705 2.705 0 01-1.178.276 2.753 2.753 0 01-2.75-2.75A2.753 2.753 0 0144.917 0a2.753 2.753 0 012.75 2.75c0 .423-.104.82-.276 1.178l7.34 7.34a.913.913 0 01.269.648v8.25a.913.913 0 01-.269.648l-2.75 2.75a.914.914 0 01-.648.269H41.63l-5.232 5.231a.914.914 0 01-.648.269H24.581A2.746 2.746 0 0122 31.166a2.753 2.753 0 01-2.75-2.75 2.753 2.753 0 012.75-2.75zM44.917 1.833a.918.918 0 000 1.834.918.918 0 000-1.834zM22 29.333a.918.918 0 000-1.833.918.918 0 000 1.833zM2.75 22c.424 0 .82.103 1.178.276l3.405-3.406v-5.289A2.746 2.746 0 015.5 11a2.753 2.753 0 012.75-2.75A2.753 2.753 0 0111 11c0 1.193-.77 2.202-1.833 2.581v5.669a.913.913 0 01-.269.648l-3.674 3.674c.172.358.276.754.276 1.178 0 1.193-.77 2.201-1.833 2.58v.707L10.73 35.1a.912.912 0 01.269.648v1.086a2.746 2.746 0 011.833 2.581A2.746 2.746 0 0111 41.997v2.172a2.746 2.746 0 011.833 2.581 2.753 2.753 0 01-2.75 2.75 2.753 2.753 0 01-2.75-2.75c0-1.193.77-2.202 1.834-2.581v-2.172a2.746 2.746 0 01-1.834-2.581c0-1.194.77-2.202 1.834-2.581v-.706l-7.065-7.065a.913.913 0 01-.269-.648v-1.085A2.746 2.746 0 010 24.75 2.753 2.753 0 012.75 22zm5.5-10.084a.918.918 0 000-1.833.918.918 0 000 1.833zm1.833 35.75a.918.918 0 000-1.833.918.918 0 000 1.833zm0-7.333a.918.918 0 000-1.834.918.918 0 000 1.834zM2.75 25.666a.918.918 0 000-1.833.918.918 0 000 1.833z"/></symbol><symbol id="vk-logo" viewBox="0 0 30 30"><path d="M21.617 17.454c-1.235-1.181-1.323-1.181-.265-2.545C22.676 13.182 24.44 11 22.852 11h-2.911c-.53 0-.618.364-.794.818-.706 1.728-2.118 4-2.647 3.636-.53-.363-.265-1.727-.265-3.908a.722.722 0 00-.177-.728c-.176-.181-.44-.363-.706-.363-.44-.091-.882-.182-1.323-.182-1.676 0-2.823.727-2.206.818 1.147.182 1.059 2.727.794 3.818-.44 1.91-2.206-1.454-3-3.182A.865.865 0 008.735 11H6.441c-.353 0-.618.091-.618.364 0 .454 2.206 4.909 4.236 7.181 2.029 2.182 4.058 2 5.47 2 .176 0 .353-.09.441-.182a.706.706 0 00.177-.454c0-1.455.529-2.182 1.5-1.182 1.058 1.09 1.323 1.818 2.647 1.818h2.382c.617 0 .794-.182.794-.454.088-.637-.97-1.819-1.853-2.637zM15.352.001C23.558.183 30.087 7 30 15.273c-.088 8.272-6.882 14.817-15.088 14.726C6.617 29.91 0 23.272 0 15 .088 6.637 6.97-.09 15.352 0z"/></symbol></svg>